<svg width="1721" height="960" viewBox="0 0 1721 960" fill="none" xmlns="http://www.w3.org/2000/svg">
<path opacity="0.0144928" d="M1867.03 794.854C1877.02 797.153 1887.32 792.565 1892.3 783.603L2050.33 498.918C2053.28 493.618 2054.01 487.371 2052.37 481.535L1926.31 32.8043C1925.02 28.2146 1922.34 24.1391 1918.63 21.1412L1601.23 -235.563C1594.51 -240.998 1585.31 -242.207 1577.41 -238.691L1318.02 -123.2C1310.12 -119.684 1304.86 -112.037 1304.4 -103.406L1282.79 304.238C1282.54 308.998 1283.77 313.72 1286.32 317.749L1535.44 711.684C1538.68 716.807 1543.82 720.444 1549.72 721.804L1867.03 794.854Z" stroke="url(#paint0_linear_17_39180)" stroke-width="4"/>
<path opacity="0.0289855" d="M1817.23 806.653C1827.07 809.449 1837.57 805.419 1843 796.761L2014.92 522.991C2018.15 517.85 2019.21 511.641 2017.88 505.718L1916.64 55.1354C1915.59 50.47 1913.12 46.2475 1909.56 43.0549L1608.27 -227.152C1601.85 -232.915 1592.73 -234.595 1584.68 -231.502L1321.17 -130.349C1313.11 -127.256 1307.46 -119.91 1306.54 -111.326L1263.45 291.074C1262.94 295.828 1263.92 300.623 1266.26 304.792L1492.53 707.382C1495.5 712.675 1500.45 716.576 1506.29 718.237L1817.23 806.653Z" stroke="url(#paint1_linear_17_39180)" stroke-width="4"/>
<path opacity="0.0434783" d="M1767.42 816.853C1777.07 820.135 1787.73 816.671 1793.61 808.342L1978.7 546.153C1982.21 541.186 1983.61 535.033 1982.59 529.039L1906.01 77.9606C1905.21 73.2321 1902.95 68.8728 1899.54 65.4927L1614.92 -217.241C1608.8 -223.317 1599.8 -225.462 1591.6 -222.798L1324.76 -136.097C1316.56 -133.433 1310.54 -126.407 1309.16 -117.896L1245.08 278.139C1244.32 282.874 1245.05 287.73 1247.18 292.027L1450.36 701.97C1453.06 707.418 1457.81 711.574 1463.56 713.532L1767.42 816.853Z" stroke="url(#paint2_linear_17_39180)" stroke-width="4"/>
<path opacity="0.057971" d="M1717.67 825.468C1727.12 829.225 1737.91 826.333 1744.22 818.355L1941.74 568.369C1945.52 563.591 1947.25 557.512 1946.55 551.463L1894.4 101.225C1893.84 96.4455 1891.8 91.9603 1888.57 88.4003L1621.08 -205.866C1615.28 -212.237 1606.42 -214.84 1598.1 -212.611L1328.73 -140.431C1320.41 -138.203 1314.03 -131.517 1312.2 -123.104L1227.68 265.484C1226.66 270.185 1227.14 275.088 1229.05 279.504L1409 695.497C1411.42 701.086 1415.96 705.488 1421.61 707.738L1717.67 825.468Z" stroke="url(#paint3_linear_17_39180)" stroke-width="4"/>
<path opacity="0.0724638" d="M1668.08 832.516C1677.3 836.735 1688.19 834.419 1694.9 826.815L1904.1 589.608C1908.13 585.034 1910.18 579.046 1909.8 572.96L1881.78 124.871C1881.48 120.054 1879.67 115.454 1876.61 111.722L1626.68 -193.066C1621.23 -199.714 1612.52 -202.767 1604.11 -200.979L1332.98 -143.347C1324.57 -141.56 1317.85 -135.231 1315.58 -126.939L1211.22 253.156C1209.94 257.81 1210.16 262.748 1211.85 267.27L1368.5 688.017C1370.63 693.732 1374.94 698.368 1380.49 700.905L1668.08 832.516Z" stroke="url(#paint4_linear_17_39180)" stroke-width="4"/>
<path opacity="0.0869565" d="M1618.73 838.021C1627.7 842.689 1638.66 840.952 1645.75 833.742L1865.82 609.844C1870.1 605.488 1872.48 599.608 1872.42 593.501L1868.16 148.842C1868.11 144.001 1866.54 139.298 1863.66 135.403L1631.65 -178.885C1626.55 -185.793 1618.03 -189.285 1609.55 -187.942L1337.43 -144.843C1328.95 -143.5 1321.93 -137.545 1319.21 -129.4L1195.68 241.202C1194.15 245.795 1194.1 250.754 1195.56 255.372L1328.91 679.584C1330.74 685.41 1334.82 690.269 1340.23 693.089L1618.73 838.021Z" stroke="url(#paint5_linear_17_39180)" stroke-width="4"/>
<path opacity="0.101449" d="M1569.7 842.012C1578.39 847.113 1589.4 845.956 1596.84 839.159L1826.98 629.052C1831.49 624.928 1834.18 619.174 1834.45 613.062L1853.51 173.082C1853.72 168.229 1852.39 163.435 1849.71 159.385L1635.92 -163.371C1631.19 -170.519 1622.87 -174.44 1614.34 -173.544L1342.02 -144.921C1333.49 -144.025 1326.17 -138.46 1323.03 -130.484L1181.02 229.667C1179.24 234.186 1178.93 239.152 1180.15 243.855L1290.27 670.257C1291.8 676.18 1295.63 681.249 1300.91 684.345L1569.7 842.012Z" stroke="url(#paint6_linear_17_39180)" stroke-width="4"/>
<path opacity="0.115942" d="M1521.07 844.52C1529.47 850.038 1540.48 849.461 1548.26 843.095L1787.62 647.213C1792.36 643.332 1795.36 637.721 1795.95 631.622L1837.83 197.532C1838.3 192.681 1837.22 187.807 1834.74 183.613L1639.43 -146.574C1635.07 -153.943 1626.98 -158.281 1618.43 -157.833L1346.66 -143.59C1338.11 -143.142 1330.52 -137.982 1326.95 -130.198L1167.23 218.596C1165.2 223.027 1164.63 227.987 1165.6 232.762L1252.63 660.096C1253.85 666.1 1257.42 671.367 1262.54 674.731L1521.07 844.52Z" stroke="url(#paint7_linear_17_39180)" stroke-width="4"/>
<path opacity="0.130435" d="M1472.92 845.583C1481.01 851.501 1491.99 851.501 1500.08 845.583L1747.81 664.308C1752.76 660.685 1756.06 655.232 1756.98 649.163L1821.12 222.135C1821.85 217.3 1821.01 212.359 1818.74 208.03L1642.09 -128.549C1638.12 -136.118 1630.28 -140.86 1621.73 -140.86L1351.27 -140.86C1342.72 -140.86 1334.88 -136.118 1330.91 -128.548L1154.26 208.03C1151.99 212.359 1151.15 217.3 1151.88 222.135L1216.02 649.163C1216.94 655.232 1220.24 660.685 1225.19 664.308L1472.92 845.583Z" stroke="url(#paint8_linear_17_39180)" stroke-width="4"/>
<path opacity="0.144928" d="M1425.32 845.241C1433.08 851.541 1444.01 852.114 1452.38 846.659L1707.62 680.326C1712.77 676.97 1716.36 671.692 1717.59 665.671L1803.37 246.833C1804.35 242.027 1803.78 237.032 1801.72 232.578L1643.87 -109.352C1640.29 -117.103 1632.71 -122.234 1624.19 -122.681L1355.78 -136.747C1347.26 -137.194 1339.19 -132.883 1334.82 -125.549L1142.09 198.008C1139.58 202.223 1138.48 207.13 1138.96 212.012L1180.49 637.523C1181.08 643.64 1184.11 649.264 1188.88 653.14L1425.32 845.241Z" stroke="url(#paint9_linear_17_39180)" stroke-width="4"/>
<path opacity="0.15942" d="M1378.35 843.539C1385.76 850.202 1396.61 851.343 1405.24 846.364L1667.09 695.254C1672.42 692.177 1676.3 687.091 1677.85 681.134L1784.58 271.569C1785.83 266.805 1785.51 261.769 1783.67 257.201L1644.69 -89.0464C1641.51 -96.9562 1634.22 -102.462 1625.75 -103.353L1360.12 -131.271C1351.64 -132.162 1343.37 -128.292 1338.62 -121.216L1130.68 188.569C1127.94 192.656 1126.58 197.516 1126.8 202.433L1146.05 625.239C1146.33 631.389 1149.06 637.17 1153.64 641.289L1378.35 843.539Z" stroke="url(#paint10_linear_17_39180)" stroke-width="4"/>
<path opacity="0.173913" d="M1332.08 840.523C1339.12 847.53 1349.85 849.231 1358.71 844.741L1626.3 709.088C1631.8 706.299 1635.95 701.419 1637.82 695.543L1764.77 296.286C1766.27 291.579 1766.21 286.514 1764.6 281.843L1644.5 -67.6937C1641.74 -75.742 1634.76 -81.6055 1626.35 -82.9367L1364.21 -124.456C1355.8 -125.787 1347.35 -122.369 1342.23 -115.569L1120 179.747C1117.03 183.694 1115.41 188.493 1115.38 193.432L1112.74 612.379C1112.7 618.545 1115.14 624.469 1119.51 628.82L1332.08 840.523Z" stroke="url(#paint11_linear_17_39180)" stroke-width="4"/>
<path opacity="0.188406" d="M1286.57 836.248C1293.22 843.577 1303.81 845.829 1312.87 841.839L1585.3 721.822C1590.95 719.332 1595.36 714.673 1597.54 708.894L1743.93 320.929C1745.68 316.291 1745.89 311.211 1744.52 306.448L1643.27 -45.3597C1640.92 -53.5249 1634.26 -59.7294 1625.95 -61.4959L1367.98 -116.328C1359.67 -118.095 1351.06 -115.136 1345.59 -108.632L1110 171.577C1106.81 175.372 1104.93 180.095 1104.65 185.044L1080.58 599.01C1080.22 605.177 1082.36 611.228 1086.51 615.802L1286.57 836.248Z" stroke="url(#paint12_linear_17_39180)" stroke-width="4"/>
<path opacity="0.202899" d="M1241.88 830.766C1248.13 838.397 1258.55 841.19 1267.78 837.708L1544.15 733.458C1549.94 731.274 1554.6 726.85 1557.09 721.185L1722.09 345.441C1724.09 340.886 1724.56 335.805 1723.42 330.96L1640.93 -22.1128C1639 -30.3732 1632.68 -36.9006 1624.49 -39.0962L1371.37 -106.92C1363.17 -109.115 1354.43 -106.622 1348.63 -100.434L1100.65 164.09C1097.25 167.719 1095.12 172.354 1094.57 177.299L1049.59 585.201C1048.91 591.351 1050.74 597.515 1054.66 602.3L1241.88 830.766Z" stroke="url(#paint13_linear_17_39180)" stroke-width="4"/>
<path opacity="0.217391" d="M1198.07 824.136C1203.91 832.047 1214.13 835.369 1223.51 832.402L1502.92 743.998C1508.82 742.128 1513.73 737.953 1516.52 732.419L1699.24 369.769C1701.49 365.31 1702.23 360.241 1701.34 355.327L1637.45 1.97742C1635.95 -6.35645 1629.98 -13.188 1621.93 -15.8051L1374.3 -96.2645C1366.25 -98.8815 1357.41 -96.8606 1351.29 -91.0039L1091.91 157.313C1088.31 160.766 1085.92 165.299 1085.12 170.227L1019.79 571.021C1018.79 577.138 1020.3 583.398 1023.98 588.384L1198.07 824.136Z" stroke="url(#paint14_linear_17_39180)" stroke-width="4"/>
<path opacity="0.231884" d="M1155.19 816.419C1160.61 824.586 1170.61 828.424 1180.1 825.979L1461.65 753.449C1467.66 751.9 1472.79 747.987 1475.88 742.598L1675.42 393.859C1677.91 389.509 1678.91 384.465 1678.27 379.495L1632.8 26.8388C1631.72 18.4536 1626.13 11.3374 1618.23 8.3075L1376.72 -84.4005C1368.83 -87.4304 1359.91 -85.8855 1353.49 -80.3774L1083.73 151.274C1079.93 154.539 1077.3 158.956 1076.24 163.854L991.176 556.539C989.862 562.606 991.056 568.947 994.488 574.121L1155.19 816.419Z" stroke="url(#paint15_linear_17_39180)" stroke-width="4"/>
<path opacity="0.246377" d="M1113.3 807.676C1118.29 816.077 1128.03 820.416 1137.61 818.497L1420.42 761.82C1426.52 760.598 1431.86 756.958 1435.23 751.732L1650.64 417.659C1653.37 413.431 1654.63 408.426 1654.24 403.411L1626.94 52.3985C1626.29 43.9837 1621.08 36.6032 1613.37 33.1703L1378.57 -71.3687C1370.86 -74.8017 1361.89 -73.7356 1355.2 -68.5913L1076.08 145.996C1072.09 149.061 1069.21 153.35 1067.9 158.205L963.77 541.824C962.141 547.826 963.011 554.231 966.183 559.58L1113.3 807.676Z" stroke="url(#paint16_linear_17_39180)" stroke-width="4"/>
<path opacity="0.26087" d="M1072.45 797.975C1076.98 806.586 1086.45 811.409 1096.08 810.018L1379.27 769.123C1385.44 768.233 1390.98 764.88 1394.63 759.83L1624.92 441.119C1627.88 437.026 1629.41 432.074 1629.27 427.026L1619.85 78.582C1619.62 70.1596 1614.8 62.5359 1607.3 58.7108L1379.78 -57.2129C1372.28 -61.038 1363.28 -60.4522 1356.33 -55.6859L1068.89 141.5C1064.73 144.356 1061.62 148.504 1060.05 153.302L937.569 526.946C935.629 532.866 936.173 539.32 939.076 544.831L1072.45 797.975Z" stroke="url(#paint17_linear_17_39180)" stroke-width="4"/>
<path opacity="0.275362" d="M1032.67 787.382C1036.75 796.179 1045.91 801.469 1055.57 800.607L1338.27 775.376C1344.49 774.821 1350.21 771.764 1354.13 766.906L1598.29 464.189C1601.47 460.244 1603.26 455.358 1603.38 450.29L1611.49 105.314C1611.69 96.9057 1607.28 89.0601 1600 84.8549L1380.31 -41.98C1373.03 -46.1853 1364.03 -46.0796 1356.85 -41.7043L1062.14 137.805C1057.82 140.442 1054.48 144.435 1052.65 149.164L912.574 511.974C910.326 517.796 910.541 524.281 913.168 529.942L1032.67 787.382Z" stroke="url(#paint18_linear_17_39180)" stroke-width="4"/>
<path opacity="0.289855" d="M993.998 775.966C997.621 784.925 1006.46 790.664 1016.12 790.33L1297.47 780.595C1303.71 780.379 1309.6 777.628 1313.78 772.977L1570.78 486.824C1574.18 483.037 1576.23 478.231 1576.6 473.156L1601.86 132.518C1602.48 124.146 1598.49 116.101 1591.45 111.528L1380.11 -25.7192C1373.06 -30.2916 1364.09 -30.6645 1356.7 -26.6921L1055.78 134.929C1051.3 137.337 1047.74 141.163 1045.66 145.809L888.779 496.977C886.229 502.685 886.113 509.185 888.456 514.981L993.998 775.966Z" stroke="url(#paint19_linear_17_39180)" stroke-width="4"/>
<path opacity="0.304348" d="M956.478 763.798C959.635 772.895 968.123 779.062 977.75 779.253L1256.91 784.802C1263.17 784.927 1269.21 782.492 1273.64 778.061L1542.41 508.976C1546.02 505.361 1548.33 500.647 1548.96 495.577L1590.93 160.118C1591.97 151.804 1588.41 143.581 1581.63 138.656L1379.11 -8.48201C1372.33 -13.4074 1363.41 -14.2561 1355.83 -10.6973L1049.76 132.883C1045.13 135.053 1041.36 138.701 1039.04 143.252L866.177 482.022C863.33 487.601 862.882 494.099 864.935 500.016L956.478 763.798Z" stroke="url(#paint20_linear_17_39180)" stroke-width="4"/>
<path opacity="0.318841" d="M920.134 750.951C922.82 760.159 930.939 766.734 940.505 767.447L1216.65 788.022C1222.91 788.488 1229.09 786.378 1233.75 782.18L1513.22 530.603C1517.04 527.171 1519.59 522.563 1520.49 517.511L1578.71 188.038C1580.16 179.802 1577.03 171.425 1570.53 166.161L1377.29 9.67768C1370.79 4.4142 1361.95 3.09404 1354.19 6.23002L1044.02 131.68C1039.27 133.603 1035.29 137.061 1032.73 141.504L844.754 467.176C841.617 472.61 840.837 479.09 842.594 485.114L920.134 750.951Z" stroke="url(#paint21_linear_17_39180)" stroke-width="4"/>
<path opacity="0.333333" d="M884.993 737.496C887.205 746.792 894.935 753.752 904.412 754.98L1176.75 790.28C1182.98 791.088 1189.28 789.309 1194.17 785.357L1483.25 551.663C1487.26 548.425 1490.06 543.936 1491.21 538.915L1565.17 216.2C1567.04 208.063 1564.35 199.555 1558.14 193.969L1374.6 28.704C1368.39 23.1184 1359.65 21.3324 1351.75 24.0375L1038.54 131.328C1033.66 132.997 1029.49 136.254 1026.69 140.576L824.495 452.504C821.076 457.779 819.964 464.224 821.42 470.339L884.993 737.496Z" stroke="url(#paint22_linear_17_39180)" stroke-width="4"/>
<path opacity="0.347826" d="M851.075 723.508C852.811 732.867 860.134 740.189 869.493 741.926L1137.24 791.606C1143.44 792.755 1149.83 791.314 1154.93 787.621L1452.53 572.118C1456.72 569.084 1459.76 564.727 1461.17 559.749L1550.33 244.528C1552.6 236.512 1550.35 227.896 1544.46 222.005L1371 48.5394C1365.1 42.6485 1356.49 40.4037 1348.47 42.6712L1033.25 131.832C1028.27 133.24 1023.92 136.284 1020.88 140.474L805.38 438.071C801.686 443.172 800.246 449.565 801.394 455.757L851.075 723.508Z" stroke="url(#paint23_linear_17_39180)" stroke-width="4"/>
<path opacity="0.362319" d="M818.396 709.06C819.656 718.457 826.554 726.118 835.768 728.354L1098.18 792.03C1104.31 793.518 1110.79 792.422 1116.08 788.997L1421.09 591.93C1425.45 589.111 1428.74 584.898 1430.4 579.976L1534.18 272.948C1536.84 265.071 1535.05 256.371 1529.49 250.193L1366.45 69.125C1360.89 62.9463 1352.42 60.2511 1344.31 62.0756L1028.12 133.197C1023.05 134.337 1018.52 137.159 1015.26 141.203L787.386 423.94C783.426 428.853 781.659 435.177 782.498 441.431L818.396 709.06Z" stroke="url(#paint24_linear_17_39180)" stroke-width="4"/>
<path opacity="0.376812" d="M786.969 694.228C787.754 703.639 794.211 711.613 803.253 714.338L1059.6 791.587C1065.65 793.411 1072.19 792.663 1077.68 789.519L1388.99 611.064C1393.51 608.47 1397.02 604.413 1398.94 599.561L1516.74 301.383C1519.79 293.666 1518.44 284.906 1513.22 278.458L1360.93 90.4004C1355.71 83.9524 1347.42 80.8164 1339.24 82.1939L1023.09 135.423C1017.94 136.289 1013.25 138.878 1009.77 142.766L770.486 410.171C766.27 414.882 764.18 421.121 764.705 427.421L786.969 694.228Z" stroke="url(#paint25_linear_17_39180)" stroke-width="4"/>
<path opacity="0.391304" d="M756.801 679.086C757.113 688.486 763.116 696.748 771.959 699.949L1021.55 790.311C1027.51 792.467 1034.09 792.072 1039.74 789.218L1356.25 629.49C1360.93 627.129 1364.66 623.241 1366.83 618.47L1498.01 329.761C1501.43 322.223 1500.54 313.426 1495.67 306.727L1354.42 112.304C1349.55 105.606 1341.46 102.04 1333.23 102.968L1018.12 138.508C1012.91 139.095 1008.06 141.443 1004.37 145.163L754.651 396.823C750.19 401.319 747.78 407.457 747.99 413.787L756.801 679.086Z" stroke="url(#paint26_linear_17_39180)" stroke-width="4"/>
<path opacity="0.405797" d="M727.897 663.708C727.739 673.072 733.275 681.596 741.893 685.261L984.066 788.24C989.906 790.723 996.513 790.683 1002.32 788.129L1322.94 647.176C1327.75 645.058 1331.7 641.35 1334.12 636.674L1478.01 358.008C1481.8 350.667 1481.36 341.858 1476.86 334.929L1346.88 134.773C1342.38 127.845 1334.51 123.861 1326.26 124.339L1013.16 142.448C1007.91 142.752 1002.92 144.849 999.02 148.39L739.848 383.953C735.152 388.222 732.428 394.241 732.321 400.587L727.897 663.708Z" stroke="url(#paint27_linear_17_39180)" stroke-width="4"/>
<path opacity="0.42029" d="M700.254 648.168C699.631 657.472 704.689 666.232 713.058 670.345L947.183 785.413C952.89 788.218 959.503 788.534 965.452 786.288L1289.08 664.097C1294.03 662.229 1298.18 658.714 1300.84 654.143L1456.76 386.055C1460.91 378.929 1460.92 370.13 1456.8 362.991L1338.3 157.746C1334.18 150.607 1326.55 146.22 1318.31 146.246L1008.17 147.237C1002.89 147.254 997.766 149.093 993.675 152.443L726.041 371.616C721.121 375.645 718.089 381.531 717.665 387.875L700.254 648.168Z" stroke="url(#paint28_linear_17_39180)" stroke-width="4"/>
<path opacity="0.434783" d="M673.868 632.538C672.787 641.759 677.356 650.727 685.452 655.272L910.935 781.87C916.491 784.989 923.092 785.664 929.164 783.734L1254.73 680.228C1259.79 678.618 1264.14 675.306 1267.04 670.853L1434.29 413.831C1438.78 406.937 1439.24 398.173 1435.51 390.845L1328.66 181.158C1324.93 173.83 1317.57 169.053 1309.35 168.63L1003.11 152.866C997.805 152.593 992.569 154.165 988.291 157.315L713.191 359.863C708.06 363.641 704.726 369.377 703.984 375.706L673.868 632.538Z" stroke="url(#paint29_linear_17_39180)" stroke-width="4"/>
<path opacity="0.449275" d="M648.73 616.891C647.197 626.006 651.27 635.153 659.069 640.113L875.354 777.654C880.741 781.08 887.31 782.112 893.489 780.504L1219.93 695.547C1225.1 694.203 1229.63 691.104 1232.77 686.782L1410.62 441.27C1415.44 434.625 1416.34 425.918 1413.01 418.422L1317.96 204.946C1314.62 197.45 1307.55 192.3 1299.39 191.431L997.926 159.324C992.619 158.759 987.28 160.057 982.825 162.996L701.256 348.744C695.927 352.259 692.299 357.832 691.24 364.128L648.73 616.891Z" stroke="url(#paint30_linear_17_39180)" stroke-width="4"/>
<path opacity="0.463768" d="M624.826 601.296C622.85 610.283 626.42 619.583 633.902 624.939L840.467 772.807C845.669 776.531 852.187 777.92 858.455 776.64L1184.74 710.037C1189.99 708.964 1194.71 706.089 1198.07 701.909L1385.79 468.308C1390.92 461.926 1392.26 453.3 1389.33 445.658L1306.18 229.047C1303.25 221.405 1296.47 215.897 1288.39 214.586L992.579 166.597C987.285 165.738 981.858 166.756 977.235 169.475L690.194 338.305C684.679 341.548 680.765 346.942 679.391 353.19L624.826 601.296Z" stroke="url(#paint31_linear_17_39180)" stroke-width="4"/>
<path opacity="0.478261" d="M602.14 585.824C599.729 594.66 602.791 604.084 609.935 609.816L806.3 767.375C811.3 771.386 817.748 773.13 824.088 772.184L1149.19 723.681C1154.52 722.885 1159.41 720.244 1162.99 716.217L1359.82 494.88C1365.25 488.777 1367.03 480.255 1364.51 472.488L1293.32 253.397C1290.8 245.63 1284.35 239.784 1276.37 238.037L987.027 174.669C981.763 173.516 976.261 174.248 971.482 176.738L679.956 328.59C674.27 331.552 670.079 336.752 668.392 342.936L602.14 585.824Z" stroke="url(#paint32_linear_17_39180)" stroke-width="4"/>
<path opacity="0.492754" d="M580.649 570.542C577.816 579.206 580.367 588.726 587.152 594.813L772.877 761.402C777.659 765.691 784.017 767.785 790.412 767.177L1113.35 736.465C1118.74 735.952 1123.78 733.553 1127.58 729.691L1332.77 520.928C1338.48 515.118 1340.69 506.721 1338.58 498.853L1279.38 277.933C1277.28 270.065 1271.16 263.898 1263.31 261.722L981.231 183.523C976.012 182.076 970.45 182.517 965.524 184.769L670.495 319.641C664.653 322.312 660.194 327.304 658.197 333.41L580.649 570.542Z" stroke="url(#paint33_linear_17_39180)" stroke-width="4"/>
<path opacity="0.507246" d="M560.33 555.516C557.085 563.987 559.123 573.575 565.533 579.994L740.217 754.934C744.766 759.489 751.015 761.93 757.447 761.663L1077.26 748.38C1082.7 748.154 1087.88 746.007 1091.88 742.32L1304.66 546.394C1310.64 540.89 1313.27 532.64 1311.58 524.692L1264.37 302.593C1262.68 294.645 1256.92 288.179 1249.22 285.582L975.151 193.138C969.993 191.398 964.385 191.544 959.325 193.55L661.761 311.494C655.776 313.866 651.06 318.638 648.757 324.649L560.33 555.516Z" stroke="url(#paint34_linear_17_39180)" stroke-width="4"/>
<path opacity="0.521739" d="M541.154 540.808C537.51 549.067 539.035 558.694 545.053 565.423L708.338 748.019C712.639 752.828 718.761 755.609 725.211 755.686L1040.96 759.419C1046.44 759.483 1051.75 757.596 1055.95 754.094L1275.54 571.224C1281.77 566.037 1284.81 557.956 1283.54 549.952L1248.28 327.316C1247.01 319.312 1241.63 312.565 1234.1 309.557L968.748 203.494C963.668 201.463 958.029 201.31 952.846 203.062L653.701 304.185C647.589 306.251 642.627 310.789 640.023 316.691L541.154 540.808Z" stroke="url(#paint35_linear_17_39180)" stroke-width="4"/>
<path opacity="0.536232" d="M523.089 526.481C519.061 534.509 520.074 544.147 525.683 551.161L677.255 740.703C681.292 745.752 687.268 748.869 693.72 749.29L1004.52 769.576C1010.01 769.934 1015.45 768.314 1019.84 765.008L1245.47 595.366C1251.93 590.508 1255.37 582.617 1254.52 574.578L1231.13 352.042C1230.29 344.003 1225.29 336.998 1217.96 333.59L961.988 214.566C957 212.246 951.347 211.791 946.053 213.283L646.26 297.745C640.038 299.498 634.84 303.789 631.941 309.568L523.089 526.481Z" stroke="url(#paint36_linear_17_39180)" stroke-width="4"/>
<path opacity="0.550725" d="M506.101 512.593C501.702 520.371 502.206 529.992 507.394 537.268L646.979 733.034C650.74 738.309 656.552 741.754 662.985 742.52L967.979 778.85C973.47 779.504 979.013 778.158 983.592 775.059L1214.49 618.772C1221.16 614.254 1224.99 606.571 1224.56 598.522L1212.94 376.71C1212.52 368.661 1207.91 361.419 1200.8 357.624L954.834 226.329C949.956 223.725 944.303 222.965 938.91 224.19L639.385 292.202C633.067 293.636 627.647 297.669 624.458 303.309L506.101 512.593Z" stroke="url(#paint37_linear_17_39180)" stroke-width="4"/>
<path opacity="0.565217" d="M490.151 499.201C485.397 506.711 485.397 516.289 490.151 523.8L617.519 725.06C620.991 730.546 626.621 734.31 633.018 735.421L931.387 787.242C936.864 788.194 942.501 787.129 947.255 784.245L1182.65 641.398C1189.52 637.228 1193.71 629.774 1193.71 621.736V401.265C1193.71 393.227 1189.52 385.772 1182.65 381.602L947.255 238.756C942.501 235.871 936.864 234.806 931.387 235.758L633.018 287.579C626.621 288.69 620.991 292.454 617.519 297.94L490.151 499.201Z" stroke="url(#paint38_linear_17_39180)" stroke-width="4"/>
<path opacity="0.57971" d="M475.198 486.357C470.107 493.585 469.608 503.091 473.917 510.811L588.882 716.827C592.053 722.51 597.483 726.583 603.826 728.038L894.794 794.757C900.243 796.006 905.961 795.228 910.878 792.568L1150 663.203C1157.05 659.389 1161.61 652.181 1162.03 644.177L1173.48 425.648C1173.9 417.645 1170.12 410 1163.51 405.47L939.218 251.818C934.606 248.659 929 247.287 923.45 247.96L627.103 283.899C620.642 284.683 614.816 288.166 611.069 293.486L475.198 486.357Z" stroke="url(#paint39_linear_17_39180)" stroke-width="4"/>
<path opacity="0.594203" d="M461.199 474.113C455.786 481.042 454.798 490.45 458.651 498.353L561.072 708.385C563.93 714.247 569.144 718.62 575.414 720.415L858.249 801.399C863.655 802.947 869.439 802.461 874.511 800.034L1116.61 684.148C1123.82 680.698 1128.72 673.753 1129.56 665.806L1152.26 449.808C1153.09 441.86 1149.74 434.049 1143.41 429.176L930.694 265.486C926.238 262.058 920.681 260.38 915.072 260.77L621.579 281.179C615.073 281.632 609.064 284.825 605.049 289.965L461.199 474.113Z" stroke="url(#paint40_linear_17_39180)" stroke-width="4"/>
<path opacity="0.608696" d="M448.108 462.516C442.392 469.131 440.921 478.416 444.313 486.474L534.089 699.778C536.625 705.803 541.604 710.464 547.783 712.597L821.802 807.18C827.147 809.025 832.985 808.836 838.2 806.649L1082.53 704.199C1089.88 701.118 1095.11 694.455 1096.36 686.586L1130.07 473.69C1131.32 465.821 1128.41 457.868 1122.37 452.668L921.656 279.729C917.372 276.038 911.878 274.054 906.224 274.157L616.39 279.434C609.854 279.553 603.678 282.447 599.404 287.394L448.108 462.516Z" stroke="url(#paint41_linear_17_39180)" stroke-width="4"/>
<path opacity="0.623188" d="M435.875 451.609C429.875 457.899 427.933 467.034 430.857 475.221L507.932 691.055C510.135 697.225 514.865 702.163 520.935 704.629L785.498 812.11C790.768 814.251 796.644 814.363 801.992 812.425L1047.82 723.326C1055.29 720.62 1060.83 714.253 1062.48 706.484L1106.96 497.245C1108.61 489.477 1106.14 481.406 1100.42 475.897L912.077 294.513C907.98 290.567 902.566 288.279 896.881 288.092L611.475 278.673C604.927 278.457 598.597 281.044 594.075 285.784L435.875 451.609Z" stroke="url(#paint42_linear_17_39180)" stroke-width="4"/>
<path opacity="0.637681" d="M424.452 441.435C418.186 447.387 415.785 456.348 418.235 464.635L482.596 682.261C484.458 688.558 488.924 693.759 494.866 696.553L749.385 816.204C754.563 818.638 760.463 819.055 765.933 817.372L1012.54 741.502C1020.11 739.174 1025.95 733.118 1028 725.471L1082.94 520.425C1084.99 512.778 1082.96 504.615 1077.57 498.816L901.935 309.804C898.04 305.612 892.722 303.023 887.02 302.542L606.775 278.904C600.231 278.352 593.764 280.623 589.002 285.146L424.452 441.435Z" stroke="url(#paint43_linear_17_39180)" stroke-width="4"/>
<path opacity="0.652174" d="M413.784 432.031C407.272 437.633 404.425 446.396 406.4 454.756L458.075 673.441C459.588 679.846 463.774 685.297 469.572 688.412L713.507 819.479C718.578 822.204 724.488 822.928 730.067 821.507L976.757 758.704C984.404 756.757 990.519 751.026 992.957 743.522L1058.05 543.184C1060.49 535.679 1058.91 527.449 1053.87 521.379L891.207 325.569C887.528 321.141 882.322 318.253 876.617 317.476L602.231 280.13C595.709 279.243 589.119 281.192 584.129 285.485L413.784 432.031Z" stroke="url(#paint44_linear_17_39180)" stroke-width="4"/>
<path opacity="0.666667" d="M403.818 423.43C397.081 428.673 393.801 437.216 395.3 445.62L434.359 664.639C435.517 671.134 439.409 676.819 445.045 680.249L677.909 821.955C682.858 824.966 688.761 825.999 694.439 824.847L940.526 774.913C948.233 773.349 954.607 767.956 957.425 760.614L1032.33 565.478C1035.15 558.137 1034.02 549.864 1029.34 543.546L879.874 341.772C876.425 337.117 871.347 333.934 865.654 332.861L597.784 282.353C591.3 281.13 584.604 282.751 579.397 286.803L403.818 423.43Z" stroke="url(#paint45_linear_17_39180)" stroke-width="4"/>
<path opacity="0.681159" d="M394.498 415.664C387.556 420.538 383.86 428.839 384.883 437.26L411.437 655.899C412.235 662.465 415.819 668.369 421.276 672.105L642.633 823.652C647.444 826.946 653.326 828.29 659.09 827.412L903.914 790.113C911.661 788.933 918.274 783.89 921.461 776.731L1005.82 587.268C1009 580.109 1008.33 571.82 1004.02 565.273L867.918 358.376C864.714 353.505 859.779 350.033 854.112 348.662L593.374 285.567C586.946 284.012 580.16 285.298 574.748 289.099L394.498 415.664Z" stroke="url(#paint46_linear_17_39180)" stroke-width="4"/>
<path opacity="0.695652" d="M385.768 408.758C378.641 413.258 374.546 421.295 375.095 429.705L389.295 647.263C389.727 653.879 392.992 659.986 398.253 664.019L607.72 824.597C612.377 828.167 618.223 829.822 624.061 829.223L866.982 804.295C874.75 803.497 881.583 798.814 885.127 791.856L978.544 608.516C982.089 601.558 981.862 593.278 977.941 586.525L855.323 375.345C852.377 370.27 847.601 366.514 841.975 364.844L588.944 289.767C582.589 287.882 575.729 288.83 570.123 292.369L385.768 408.758Z" stroke="url(#paint47_linear_17_39180)" stroke-width="4"/>
<path opacity="0.710145" d="M377.569 402.737C370.279 406.855 365.803 414.609 365.882 422.981L367.917 638.772C367.98 645.417 370.914 651.71 375.963 656.031L573.21 824.813C577.699 828.654 583.493 830.62 589.392 830.305L829.796 817.449C837.565 817.033 844.597 812.719 848.487 805.981L950.56 629.185C954.45 622.448 954.67 614.201 951.146 607.265L842.077 392.641C839.401 387.375 834.801 383.34 829.231 381.373L584.437 294.943C578.171 292.73 571.254 293.336 565.468 296.605L377.569 402.737Z" stroke="url(#paint48_linear_17_39180)" stroke-width="4"/>
<path opacity="0.724638" d="M369.843 397.621C362.411 401.351 357.572 408.803 357.187 417.11L347.285 630.465C346.976 637.119 349.567 643.58 354.389 648.177L539.141 824.33C543.446 828.434 549.173 830.711 555.12 830.683L792.419 829.572C800.169 829.536 807.38 825.599 811.601 819.099L921.906 649.245C926.127 642.745 926.79 634.556 923.671 627.461L828.168 410.226C825.775 404.782 821.365 400.476 815.865 398.213L579.796 301.081C573.635 298.546 566.679 298.807 560.725 301.795L369.843 397.621Z" stroke="url(#paint49_linear_17_39180)" stroke-width="4"/>
<path opacity="0.73913" d="M362.531 393.424C354.979 396.764 349.797 403.896 348.954 412.11L327.378 622.379C326.696 629.022 328.935 635.633 333.513 640.495L505.549 823.178C509.654 827.538 515.299 830.124 521.282 830.387L754.914 840.665C762.626 841.004 769.994 837.452 774.532 831.206L892.625 668.665C897.163 662.419 898.265 654.314 895.559 647.084L813.588 428.063C811.488 422.454 807.284 417.885 801.869 415.327L574.966 308.164C568.927 305.312 561.948 305.226 555.84 307.927L362.531 393.424Z" stroke="url(#paint50_linear_17_39180)" stroke-width="4"/>
<path opacity="0.753623" d="M355.572 390.159C347.922 393.106 342.418 399.902 341.126 407.999L308.174 614.552C307.119 621.162 308.997 627.905 313.318 633.019L472.466 821.388C476.359 825.995 481.905 828.889 487.911 829.446L717.343 850.731C724.998 851.441 732.503 848.279 737.342 842.304L862.765 687.419C867.604 681.444 869.136 673.446 866.85 666.105L798.328 446.112C796.535 440.354 792.551 435.53 787.235 432.681L569.893 316.174C563.993 313.011 557.008 312.576 550.76 314.982L355.572 390.159Z" stroke="url(#paint51_linear_17_39180)" stroke-width="4"/>
<path opacity="0.768116" d="M348.908 387.835C341.18 390.387 335.376 396.833 333.646 404.785L289.649 607.017C288.222 613.575 289.731 620.429 293.78 625.781L439.927 818.994C443.592 823.84 449.024 827.038 455.039 827.891L679.767 859.778C687.348 860.854 694.967 858.087 700.091 852.396L832.371 705.484C837.495 699.794 839.45 691.927 837.588 684.5L782.385 464.336C780.908 458.444 777.159 453.375 771.958 450.237L564.526 325.087C558.78 321.62 551.806 320.836 545.433 322.94L348.908 387.835Z" stroke="url(#paint52_linear_17_39180)" stroke-width="4"/>
<path opacity="0.782609" d="M342.479 386.456C334.695 388.613 328.613 394.695 326.456 402.479L271.778 599.807C269.982 606.291 271.114 613.237 274.878 618.814L407.959 816.033C411.383 821.106 416.686 824.605 422.697 825.757L642.249 867.818C649.737 869.252 657.449 866.883 662.84 861.492L801.492 722.84C806.883 717.449 809.252 709.737 807.817 702.249L765.756 482.697C764.605 476.687 761.105 471.383 756.032 467.959L558.814 334.878C553.237 331.114 546.291 329.982 539.807 331.778L342.479 386.456Z" stroke="url(#paint53_linear_17_39180)" stroke-width="4"/>
<path opacity="0.797101" d="M336.225 386.024C328.407 387.787 322.069 393.493 319.499 401.084L254.534 592.955C252.371 599.344 253.121 606.36 256.587 612.148L376.592 812.539C379.76 817.829 384.92 821.626 390.913 823.076L604.847 874.864C612.224 876.65 620.007 874.681 625.648 869.602L770.175 739.469C775.816 734.39 778.587 726.855 777.583 719.332L748.441 501.157C747.624 495.045 744.388 489.516 739.458 485.813L552.708 345.519C547.315 341.467 540.415 339.987 533.835 341.471L336.225 386.024Z" stroke="url(#paint54_linear_17_39180)" stroke-width="4"/>
<path opacity="0.811594" d="M330.089 386.536C322.256 387.907 315.687 393.226 312.718 400.602L237.888 586.487C235.362 592.761 235.726 599.828 238.882 605.809L345.85 808.551C348.75 814.047 353.75 818.136 359.712 819.887L567.619 880.935C574.868 883.064 582.701 881.496 588.573 876.741L738.47 755.358C744.341 750.603 747.503 743.267 746.928 735.733L730.44 519.677C729.967 513.481 727.007 507.74 722.234 503.761L546.163 356.978C540.968 352.647 534.131 350.823 527.47 351.989L330.089 386.536Z" stroke="url(#paint55_linear_17_39180)" stroke-width="4"/>
<path opacity="0.826087" d="M324.011 387.986C316.186 388.968 309.409 393.892 306.057 401.031L221.81 580.432C218.928 586.569 218.901 593.666 221.735 599.825L315.756 804.109C318.375 809.798 323.201 814.174 329.119 816.225L530.622 886.053C537.727 888.516 545.588 887.349 551.672 882.929L706.424 770.495C712.508 766.074 716.047 758.959 715.901 751.44L711.758 538.221C711.636 531.959 708.966 526.018 704.364 521.769L539.132 369.222C534.15 364.623 527.393 362.456 520.666 363.301L324.011 387.986Z" stroke="url(#paint56_linear_17_39180)" stroke-width="4"/>
<path opacity="0.84058" d="M317.935 390.365C310.137 390.964 303.178 395.483 299.46 402.364L206.269 574.814C203.037 580.795 202.616 587.899 205.12 594.219L286.332 799.252C288.657 805.123 293.294 809.779 299.154 812.129L493.91 890.243C500.856 893.029 508.723 892.261 514.999 888.186L674.088 784.872C680.364 780.796 684.265 773.922 684.545 766.443L692.399 556.753C692.636 550.443 690.268 544.314 685.851 539.802L531.575 382.216C526.82 377.359 520.159 374.854 513.381 375.373L317.935 390.365Z" stroke="url(#paint57_linear_17_39180)" stroke-width="4"/>
<path opacity="0.855072" d="M311.806 393.661C304.056 393.88 296.938 397.99 292.872 404.592L191.233 569.657C187.66 575.461 186.844 582.55 189.007 589.014L257.595 794.022C259.615 800.06 264.048 804.99 269.837 807.639L457.537 893.532C464.308 896.63 472.159 896.259 478.608 892.536L641.51 798.485C647.959 794.762 652.206 788.148 652.908 780.735L672.373 575.235C672.973 568.897 670.919 562.593 666.701 557.825L523.453 395.921C518.936 390.817 512.389 387.978 505.576 388.171L311.806 393.661Z" stroke="url(#paint58_linear_17_39180)" stroke-width="4"/>
<path opacity="0.869565" d="M305.568 397.856C297.885 397.704 290.633 401.399 286.241 407.704L176.67 564.98C172.763 570.587 171.553 577.641 173.366 584.23L229.562 788.461C231.266 794.651 235.479 799.848 241.184 802.794L421.553 895.951C428.134 899.35 435.949 899.372 442.549 896.009L608.739 811.331C615.339 807.968 619.915 801.633 621.034 794.311L651.687 593.633C652.656 587.286 650.928 580.823 646.921 575.806L514.727 410.298C510.462 404.958 504.044 401.792 497.211 401.656L305.568 397.856Z" stroke="url(#paint59_linear_17_39180)" stroke-width="4"/>
<path opacity="0.884058" d="M299.17 402.933C291.572 402.417 284.212 405.694 279.513 411.685L162.544 560.803C158.316 566.194 156.711 573.19 158.166 579.885L202.246 782.611C203.622 788.939 207.602 794.395 213.209 797.636L386.006 897.534C392.384 901.221 400.142 901.63 406.872 898.634L575.823 823.412C582.553 820.416 587.44 814.377 588.968 807.169L630.353 611.912C631.695 605.576 630.305 598.968 626.523 593.711L505.363 425.303C501.361 419.741 495.089 416.253 488.253 415.788L299.17 402.933Z" stroke="url(#paint60_linear_17_39180)" stroke-width="4"/>
<path opacity="0.898551" d="M292.559 408.869C285.066 407.997 277.622 410.854 272.637 416.516L148.823 557.142C144.283 562.298 142.286 569.213 143.378 575.996L175.657 776.515C176.696 782.966 180.429 788.671 185.925 792.205L350.942 898.317C357.104 902.279 364.785 903.069 371.624 900.443L542.808 834.732C549.648 832.107 554.827 826.38 556.755 819.312L608.384 630.038C610.103 623.735 609.06 616.997 605.515 611.508L495.33 440.894C491.603 435.123 485.491 431.32 478.668 430.526L292.559 408.869Z" stroke="url(#paint61_linear_17_39180)" stroke-width="4"/>
<path opacity="0.913043" d="M285.686 415.638C278.316 414.42 270.813 416.858 265.566 422.175L135.471 554.01C130.633 558.913 128.247 565.726 128.969 572.576L149.805 770.216C150.496 776.774 153.969 782.719 159.341 786.543L316.403 898.338C322.337 902.562 329.921 903.725 336.848 901.474L509.743 845.297C516.67 843.047 522.121 837.648 524.439 830.743L585.794 647.98C587.893 641.729 587.207 634.878 583.912 629.166L484.599 457.025C481.157 451.059 475.222 446.949 468.426 445.826L285.686 415.638Z" stroke="url(#paint62_linear_17_39180)" stroke-width="4"/>
<path opacity="0.927536" d="M278.505 423.213C271.274 421.66 263.737 423.68 258.252 428.64L122.453 551.42C117.33 556.052 114.56 562.741 114.907 569.639L124.695 763.759C125.03 770.406 128.228 776.582 133.463 780.692L282.432 897.639C288.127 902.109 295.594 903.638 302.587 901.764L476.671 855.118C483.664 853.244 489.367 848.187 492.064 841.468L562.601 665.705C565.08 659.528 564.762 652.58 561.728 646.656L473.144 473.649C469.996 467.502 464.253 463.094 457.5 461.644L278.505 423.213Z" stroke="url(#paint63_linear_17_39180)" stroke-width="4"/>
<path opacity="0.942029" d="M270.97 431.563C263.895 429.687 256.349 431.291 250.648 435.883L109.733 549.381C104.34 553.725 101.191 560.268 101.161 567.193L100.33 757.186C100.301 763.906 103.211 770.302 108.297 774.694L249.064 896.262C254.51 900.965 261.842 902.848 268.879 901.353L443.639 864.206C450.676 862.71 456.608 858.008 459.67 851.497L538.822 683.183C541.681 677.102 541.739 670.075 538.979 663.949L460.942 490.719C458.098 484.405 452.56 479.709 445.866 477.934L270.97 431.563Z" stroke="url(#paint64_linear_17_39180)" stroke-width="4"/>
<path opacity="0.956522" d="M263.039 440.656C256.135 438.469 248.604 439.662 242.713 443.875L97.2767 547.902C91.629 551.941 88.1086 558.316 87.6976 565.248L76.7116 750.542C76.31 757.316 78.9201 763.921 83.8436 768.591L216.336 894.254C221.522 899.173 228.701 901.401 235.762 900.283L410.688 872.577C417.748 871.459 423.887 867.122 427.3 860.84L514.476 700.386C517.715 694.423 518.156 687.334 515.681 681.016L447.974 508.185C445.441 501.72 440.123 496.745 433.503 494.649L263.039 440.656Z" stroke="url(#paint65_linear_17_39180)" stroke-width="4"/>
<path opacity="0.971014" d="M254.671 450.456C247.953 447.972 240.461 448.759 234.406 452.586L85.0473 546.986C79.162 550.706 75.2784 556.891 74.4852 563.808L53.8381 743.869C53.0572 750.679 55.3543 757.482 60.1034 762.424L184.278 891.66C189.197 896.78 196.205 899.34 203.267 898.598L377.861 880.248C384.922 879.505 391.245 875.544 394.992 869.513L489.583 717.284C493.201 711.462 494.034 704.33 491.854 697.832L434.221 525.998C432.007 519.398 426.923 514.155 420.392 511.74L254.671 450.456Z" stroke="url(#paint66_linear_17_39180)" stroke-width="4"/>
<path opacity="0.985507" d="M245.83 460.926C239.311 458.158 231.88 458.547 225.687 461.981L73.0102 546.638C66.9051 550.023 62.6678 555.998 61.4921 562.879L31.7057 737.21C30.5393 744.037 32.5111 751.026 37.0737 756.236L152.918 888.529C157.563 893.833 164.384 896.714 171.425 896.345L345.197 887.238C352.238 886.869 358.721 883.291 362.786 877.53L464.168 733.853C468.161 728.194 469.391 721.038 467.517 714.37L419.672 544.108C417.783 537.387 412.944 531.888 406.519 529.159L245.83 460.926Z" stroke="url(#paint67_linear_17_39180)" stroke-width="4"/>
<path d="M236.479 472.026C230.173 468.989 222.827 468.989 216.521 472.026L61.13 546.858C54.8237 549.895 50.2435 555.638 48.686 562.462L10.3077 730.609C8.75018 737.433 10.3848 744.595 14.7489 750.067L122.283 884.91C126.647 890.382 133.265 893.57 140.265 893.57H312.735C319.735 893.57 326.353 890.382 330.717 884.91L438.251 750.067C442.615 744.595 444.25 737.433 442.692 730.609L404.314 562.462C402.756 555.638 398.176 549.895 391.87 546.858L236.479 472.026Z" stroke="url(#paint68_linear_17_39180)" stroke-width="4"/>
<defs>
<linearGradient id="paint0_linear_17_39180" x1="1884.92" y1="801.024" x2="1406.8" y2="-272.838" gradientUnits="userSpaceOnUse">
<stop stop-color="#63f072"/>
<stop offset="1" stop-color="#00F0FF"/>
</linearGradient>
<linearGradient id="paint1_linear_17_39180" x1="1834.72" y1="813.706" x2="1417.18" y2="-274.021" gradientUnits="userSpaceOnUse">
<stop stop-color="#63f072"/>
<stop offset="1" stop-color="#00F0FF"/>
</linearGradient>
<linearGradient id="paint2_linear_17_39180" x1="1784.47" y1="824.763" x2="1427.63" y2="-273.458" gradientUnits="userSpaceOnUse">
<stop stop-color="#63f072"/>
<stop offset="1" stop-color="#00F0FF"/>
</linearGradient>
<linearGradient id="paint3_linear_17_39180" x1="1734.24" y1="834.208" x2="1438.06" y2="-271.161" gradientUnits="userSpaceOnUse">
<stop stop-color="#63f072"/>
<stop offset="1" stop-color="#00F0FF"/>
</linearGradient>
<linearGradient id="paint4_linear_17_39180" x1="1684.12" y1="842.058" x2="1448.35" y2="-267.149" gradientUnits="userSpaceOnUse">
<stop stop-color="#63f072"/>
<stop offset="1" stop-color="#00F0FF"/>
</linearGradient>
<linearGradient id="paint5_linear_17_39180" x1="1634.21" y1="848.333" x2="1458.44" y2="-261.446" gradientUnits="userSpaceOnUse">
<stop stop-color="#63f072"/>
<stop offset="1" stop-color="#00F0FF"/>
</linearGradient>
<linearGradient id="paint6_linear_17_39180" x1="1584.58" y1="853.061" x2="1468.21" y2="-254.078" gradientUnits="userSpaceOnUse">
<stop stop-color="#63f072"/>
<stop offset="1" stop-color="#00F0FF"/>
</linearGradient>
<linearGradient id="paint7_linear_17_39180" x1="1535.32" y1="856.272" x2="1477.6" y2="-245.079" gradientUnits="userSpaceOnUse">
<stop stop-color="#63f072"/>
<stop offset="1" stop-color="#00F0FF"/>
</linearGradient>
<linearGradient id="paint8_linear_17_39180" x1="1486.5" y1="858" x2="1486.5" y2="-234.487" gradientUnits="userSpaceOnUse">
<stop stop-color="#63f072"/>
<stop offset="1" stop-color="#00F0FF"/>
</linearGradient>
<linearGradient id="paint9_linear_17_39180" x1="1438.21" y1="858.285" x2="1494.84" y2="-222.344" gradientUnits="userSpaceOnUse">
<stop stop-color="#63f072"/>
<stop offset="1" stop-color="#00F0FF"/>
</linearGradient>
<linearGradient id="paint10_linear_17_39180" x1="1390.51" y1="857.171" x2="1502.54" y2="-208.696" gradientUnits="userSpaceOnUse">
<stop stop-color="#63f072"/>
<stop offset="1" stop-color="#00F0FF"/>
</linearGradient>
<linearGradient id="paint11_linear_17_39180" x1="1343.48" y1="854.703" x2="1509.52" y2="-193.593" gradientUnits="userSpaceOnUse">
<stop stop-color="#63f072"/>
<stop offset="1" stop-color="#00F0FF"/>
</linearGradient>
<linearGradient id="paint12_linear_17_39180" x1="1297.19" y1="850.932" x2="1515.71" y2="-177.089" gradientUnits="userSpaceOnUse">
<stop stop-color="#63f072"/>
<stop offset="1" stop-color="#00F0FF"/>
</linearGradient>
<linearGradient id="paint13_linear_17_39180" x1="1251.7" y1="845.912" x2="1521.03" y2="-159.243" gradientUnits="userSpaceOnUse">
<stop stop-color="#63f072"/>
<stop offset="1" stop-color="#00F0FF"/>
</linearGradient>
<linearGradient id="paint14_linear_17_39180" x1="1207.07" y1="839.7" x2="1525.43" y2="-140.114" gradientUnits="userSpaceOnUse">
<stop stop-color="#63f072"/>
<stop offset="1" stop-color="#00F0FF"/>
</linearGradient>
<linearGradient id="paint15_linear_17_39180" x1="1163.36" y1="832.355" x2="1528.85" y2="-119.769" gradientUnits="userSpaceOnUse">
<stop stop-color="#63f072"/>
<stop offset="1" stop-color="#00F0FF"/>
</linearGradient>
<linearGradient id="paint16_linear_17_39180" x1="1120.62" y1="823.94" x2="1531.22" y2="-98.2726" gradientUnits="userSpaceOnUse">
<stop stop-color="#63f072"/>
<stop offset="1" stop-color="#00F0FF"/>
</linearGradient>
<linearGradient id="paint17_linear_17_39180" x1="1078.9" y1="814.52" x2="1532.49" y2="-75.6958" gradientUnits="userSpaceOnUse">
<stop stop-color="#63f072"/>
<stop offset="1" stop-color="#00F0FF"/>
</linearGradient>
<linearGradient id="paint18_linear_17_39180" x1="1038.25" y1="804.161" x2="1532.62" y2="-52.1105" gradientUnits="userSpaceOnUse">
<stop stop-color="#63f072"/>
<stop offset="1" stop-color="#00F0FF"/>
</linearGradient>
<linearGradient id="paint19_linear_17_39180" x1="998.703" y1="792.933" x2="1531.56" y2="-27.5905" gradientUnits="userSpaceOnUse">
<stop stop-color="#63f072"/>
<stop offset="1" stop-color="#00F0FF"/>
</linearGradient>
<linearGradient id="paint20_linear_17_39180" x1="960.298" y1="780.907" x2="1529.27" y2="-2.21168" gradientUnits="userSpaceOnUse">
<stop stop-color="#63f072"/>
<stop offset="1" stop-color="#00F0FF"/>
</linearGradient>
<linearGradient id="paint21_linear_17_39180" x1="923.069" y1="768.153" x2="1525.71" y2="23.9484" gradientUnits="userSpaceOnUse">
<stop stop-color="#63f072"/>
<stop offset="1" stop-color="#00F0FF"/>
</linearGradient>
<linearGradient id="paint22_linear_17_39180" x1="887.042" y1="754.746" x2="1520.87" y2="50.8112" gradientUnits="userSpaceOnUse">
<stop stop-color="#63f072"/>
<stop offset="1" stop-color="#00F0FF"/>
</linearGradient>
<linearGradient id="paint23_linear_17_39180" x1="852.241" y1="740.759" x2="1514.7" y2="78.2971" gradientUnits="userSpaceOnUse">
<stop stop-color="#63f072"/>
<stop offset="1" stop-color="#00F0FF"/>
</linearGradient>
<linearGradient id="paint24_linear_17_39180" x1="818.686" y1="726.267" x2="1507.2" y2="106.326" gradientUnits="userSpaceOnUse">
<stop stop-color="#63f072"/>
<stop offset="1" stop-color="#00F0FF"/>
</linearGradient>
<linearGradient id="paint25_linear_17_39180" x1="786.39" y1="711.345" x2="1498.34" y2="134.817" gradientUnits="userSpaceOnUse">
<stop stop-color="#63f072"/>
<stop offset="1" stop-color="#00F0FF"/>
</linearGradient>
<linearGradient id="paint26_linear_17_39180" x1="755.364" y1="696.068" x2="1488.12" y2="163.689" gradientUnits="userSpaceOnUse">
<stop stop-color="#63f072"/>
<stop offset="1" stop-color="#00F0FF"/>
</linearGradient>
<linearGradient id="paint27_linear_17_39180" x1="725.614" y1="680.512" x2="1476.53" y2="192.863" gradientUnits="userSpaceOnUse">
<stop stop-color="#63f072"/>
<stop offset="1" stop-color="#00F0FF"/>
</linearGradient>
<linearGradient id="paint28_linear_17_39180" x1="697.14" y1="664.75" x2="1463.56" y2="222.256" gradientUnits="userSpaceOnUse">
<stop stop-color="#63f072"/>
<stop offset="1" stop-color="#00F0FF"/>
</linearGradient>
<linearGradient id="paint29_linear_17_39180" x1="669.941" y1="648.857" x2="1449.23" y2="251.791" gradientUnits="userSpaceOnUse">
<stop stop-color="#63f072"/>
<stop offset="1" stop-color="#00F0FF"/>
</linearGradient>
<linearGradient id="paint30_linear_17_39180" x1="644.008" y1="632.906" x2="1433.53" y2="281.389" gradientUnits="userSpaceOnUse">
<stop stop-color="#63f072"/>
<stop offset="1" stop-color="#00F0FF"/>
</linearGradient>
<linearGradient id="paint31_linear_17_39180" x1="619.332" y1="616.969" x2="1416.48" y2="310.972" gradientUnits="userSpaceOnUse">
<stop stop-color="#63f072"/>
<stop offset="1" stop-color="#00F0FF"/>
</linearGradient>
<linearGradient id="paint32_linear_17_39180" x1="595.896" y1="601.116" x2="1398.1" y2="340.464" gradientUnits="userSpaceOnUse">
<stop stop-color="#63f072"/>
<stop offset="1" stop-color="#00F0FF"/>
</linearGradient>
<linearGradient id="paint33_linear_17_39180" x1="573.681" y1="585.416" x2="1378.41" y2="369.791" gradientUnits="userSpaceOnUse">
<stop stop-color="#63f072"/>
<stop offset="1" stop-color="#00F0FF"/>
</linearGradient>
<linearGradient id="paint34_linear_17_39180" x1="552.664" y1="569.937" x2="1357.42" y2="398.88" gradientUnits="userSpaceOnUse">
<stop stop-color="#63f072"/>
<stop offset="1" stop-color="#00F0FF"/>
</linearGradient>
<linearGradient id="paint35_linear_17_39180" x1="532.82" y1="554.744" x2="1335.18" y2="427.663" gradientUnits="userSpaceOnUse">
<stop stop-color="#63f072"/>
<stop offset="1" stop-color="#00F0FF"/>
</linearGradient>
<linearGradient id="paint36_linear_17_39180" x1="514.117" y1="539.9" x2="1311.71" y2="456.07" gradientUnits="userSpaceOnUse">
<stop stop-color="#63f072"/>
<stop offset="1" stop-color="#00F0FF"/>
</linearGradient>
<linearGradient id="paint37_linear_17_39180" x1="496.523" y1="525.466" x2="1287.05" y2="484.037" gradientUnits="userSpaceOnUse">
<stop stop-color="#63f072"/>
<stop offset="1" stop-color="#00F0FF"/>
</linearGradient>
<linearGradient id="paint38_linear_17_39180" x1="480" y1="511.5" x2="1261.24" y2="511.5" gradientUnits="userSpaceOnUse">
<stop stop-color="#63f072"/>
<stop offset="1" stop-color="#00F0FF"/>
</linearGradient>
<linearGradient id="paint39_linear_17_39180" x1="464.509" y1="498.057" x2="1234.32" y2="538.401" gradientUnits="userSpaceOnUse">
<stop stop-color="#63f072"/>
<stop offset="1" stop-color="#00F0FF"/>
</linearGradient>
<linearGradient id="paint40_linear_17_39180" x1="450.008" y1="485.19" x2="1206.33" y2="564.683" gradientUnits="userSpaceOnUse">
<stop stop-color="#63f072"/>
<stop offset="1" stop-color="#00F0FF"/>
</linearGradient>
<linearGradient id="paint41_linear_17_39180" x1="436.451" y1="472.949" x2="1177.33" y2="590.293" gradientUnits="userSpaceOnUse">
<stop stop-color="#63f072"/>
<stop offset="1" stop-color="#00F0FF"/>
</linearGradient>
<linearGradient id="paint42_linear_17_39180" x1="423.79" y1="461.38" x2="1147.36" y2="615.18" gradientUnits="userSpaceOnUse">
<stop stop-color="#63f072"/>
<stop offset="1" stop-color="#00F0FF"/>
</linearGradient>
<linearGradient id="paint43_linear_17_39180" x1="411.977" y1="450.525" x2="1116.49" y2="639.298" gradientUnits="userSpaceOnUse">
<stop stop-color="#63f072"/>
<stop offset="1" stop-color="#00F0FF"/>
</linearGradient>
<linearGradient id="paint44_linear_17_39180" x1="400.959" y1="440.426" x2="1084.76" y2="662.605" gradientUnits="userSpaceOnUse">
<stop stop-color="#63f072"/>
<stop offset="1" stop-color="#00F0FF"/>
</linearGradient>
<linearGradient id="paint45_linear_17_39180" x1="390.682" y1="431.118" x2="1052.23" y2="685.062" gradientUnits="userSpaceOnUse">
<stop stop-color="#63f072"/>
<stop offset="1" stop-color="#00F0FF"/>
</linearGradient>
<linearGradient id="paint46_linear_17_39180" x1="381.092" y1="422.633" x2="1018.96" y2="706.632" gradientUnits="userSpaceOnUse">
<stop stop-color="#63f072"/>
<stop offset="1" stop-color="#00F0FF"/>
</linearGradient>
<linearGradient id="paint47_linear_17_39180" x1="372.131" y1="415.002" x2="985.021" y2="727.285" gradientUnits="userSpaceOnUse">
<stop stop-color="#63f072"/>
<stop offset="1" stop-color="#00F0FF"/>
</linearGradient>
<linearGradient id="paint48_linear_17_39180" x1="363.743" y1="408.25" x2="950.464" y2="746.994" gradientUnits="userSpaceOnUse">
<stop stop-color="#63f072"/>
<stop offset="1" stop-color="#00F0FF"/>
</linearGradient>
<linearGradient id="paint49_linear_17_39180" x1="355.867" y1="402.399" x2="915.355" y2="765.734" gradientUnits="userSpaceOnUse">
<stop stop-color="#63f072"/>
<stop offset="1" stop-color="#00F0FF"/>
</linearGradient>
<linearGradient id="paint50_linear_17_39180" x1="348.446" y1="397.466" x2="879.758" y2="783.487" gradientUnits="userSpaceOnUse">
<stop stop-color="#63f072"/>
<stop offset="1" stop-color="#00F0FF"/>
</linearGradient>
<linearGradient id="paint51_linear_17_39180" x1="341.419" y1="393.467" x2="843.737" y2="800.236" gradientUnits="userSpaceOnUse">
<stop stop-color="#63f072"/>
<stop offset="1" stop-color="#00F0FF"/>
</linearGradient>
<linearGradient id="paint52_linear_17_39180" x1="334.726" y1="390.412" x2="807.357" y2="815.97" gradientUnits="userSpaceOnUse">
<stop stop-color="#63f072"/>
<stop offset="1" stop-color="#00F0FF"/>
</linearGradient>
<linearGradient id="paint53_linear_17_39180" x1="328.307" y1="388.307" x2="770.682" y2="830.682" gradientUnits="userSpaceOnUse">
<stop stop-color="#63f072"/>
<stop offset="1" stop-color="#00F0FF"/>
</linearGradient>
<linearGradient id="paint54_linear_17_39180" x1="322.103" y1="387.158" x2="733.777" y2="844.368" gradientUnits="userSpaceOnUse">
<stop stop-color="#63f072"/>
<stop offset="1" stop-color="#00F0FF"/>
</linearGradient>
<linearGradient id="paint55_linear_17_39180" x1="316.053" y1="386.962" x2="696.705" y2="857.029" gradientUnits="userSpaceOnUse">
<stop stop-color="#63f072"/>
<stop offset="1" stop-color="#00F0FF"/>
</linearGradient>
<linearGradient id="paint56_linear_17_39180" x1="310.1" y1="387.717" x2="659.531" y2="868.667" gradientUnits="userSpaceOnUse">
<stop stop-color="#63f072"/>
<stop offset="1" stop-color="#00F0FF"/>
</linearGradient>
<linearGradient id="paint57_linear_17_39180" x1="304.184" y1="389.414" x2="622.315" y2="879.292" gradientUnits="userSpaceOnUse">
<stop stop-color="#63f072"/>
<stop offset="1" stop-color="#00F0FF"/>
</linearGradient>
<linearGradient id="paint58_linear_17_39180" x1="298.25" y1="392.044" x2="585.119" y2="888.915" gradientUnits="userSpaceOnUse">
<stop stop-color="#63f072"/>
<stop offset="1" stop-color="#00F0FF"/>
</linearGradient>
<linearGradient id="paint59_linear_17_39180" x1="292.242" y1="395.592" x2="548.003" y2="897.552" gradientUnits="userSpaceOnUse">
<stop stop-color="#63f072"/>
<stop offset="1" stop-color="#00F0FF"/>
</linearGradient>
<linearGradient id="paint60_linear_17_39180" x1="286.105" y1="400.04" x2="511.025" y2="905.22" gradientUnits="userSpaceOnUse">
<stop stop-color="#63f072"/>
<stop offset="1" stop-color="#00F0FF"/>
</linearGradient>
<linearGradient id="paint61_linear_17_39180" x1="279.787" y1="405.369" x2="474.242" y2="911.941" gradientUnits="userSpaceOnUse">
<stop stop-color="#63f072"/>
<stop offset="1" stop-color="#00F0FF"/>
</linearGradient>
<linearGradient id="paint62_linear_17_39180" x1="273.237" y1="411.554" x2="437.708" y2="917.742" gradientUnits="userSpaceOnUse">
<stop stop-color="#63f072"/>
<stop offset="1" stop-color="#00F0FF"/>
</linearGradient>
<linearGradient id="paint63_linear_17_39180" x1="266.407" y1="418.57" x2="401.475" y2="922.65" gradientUnits="userSpaceOnUse">
<stop stop-color="#63f072"/>
<stop offset="1" stop-color="#00F0FF"/>
</linearGradient>
<linearGradient id="paint64_linear_17_39180" x1="259.25" y1="426.387" x2="365.594" y2="926.697" gradientUnits="userSpaceOnUse">
<stop stop-color="#63f072"/>
<stop offset="1" stop-color="#00F0FF"/>
</linearGradient>
<linearGradient id="paint65_linear_17_39180" x1="251.721" y1="434.973" x2="330.112" y2="929.916" gradientUnits="userSpaceOnUse">
<stop stop-color="#63f072"/>
<stop offset="1" stop-color="#00F0FF"/>
</linearGradient>
<linearGradient id="paint66_linear_17_39180" x1="243.779" y1="444.296" x2="295.075" y2="932.345" gradientUnits="userSpaceOnUse">
<stop stop-color="#63f072"/>
<stop offset="1" stop-color="#00F0FF"/>
</linearGradient>
<linearGradient id="paint67_linear_17_39180" x1="235.384" y1="454.317" x2="260.524" y2="934.022" gradientUnits="userSpaceOnUse">
<stop stop-color="#63f072"/>
<stop offset="1" stop-color="#00F0FF"/>
</linearGradient>
<linearGradient id="paint68_linear_17_39180" x1="226.5" y1="465" x2="226.5" y2="934.988" gradientUnits="userSpaceOnUse">
<stop stop-color="#63f072"/>
<stop offset="1" stop-color="#00F0FF"/>
</linearGradient>
</defs>
</svg>
